# xmcd
#
# Track frame offsets: 
#        150
#        21650
#        55539
#        86453
#        112473
#        138606
#        164703
#
# Disc length: 2720 seconds
#
# Revision: 0
# Processed by: cddbd v1.5.2PL0 Copyright (c) Steve Scherf et al.
# Submitted via: ExactAudioCopy v1.0b4
#
DISCID=660a9e07
DTITLE=John Ginty - Bad New Travels (Live)  disc 1
DYEAR=2014
DGENRE=Blues
TTITLE0=Switch
TTITLE1=Arrivals
TTITLE2=Black Cat
TTITLE3=Elvis Presley
TTITLE4=Peanut Butter
TTITLE5=Rock Ridge
TTITLE6=Seven And The Spirit
EXTD=
EXTT0=
EXTT1=
EXTT2=
EXTT3=
EXTT4=
EXTT5=
EXTT6=
PLAYORDER=
